<?xml version="1.0" encoding="UTF-8" standalone="no"?>
<!-- Created with Inkscape (http://www.inkscape.org/) -->

<svg
   xmlns:dc="http://purl.org/dc/elements/1.1/"
   xmlns:cc="http://creativecommons.org/ns#"
   xmlns:rdf="http://www.w3.org/1999/02/22-rdf-syntax-ns#"
   xmlns:svg="http://www.w3.org/2000/svg"
   xmlns="http://www.w3.org/2000/svg"
   xmlns:sodipodi="http://sodipodi.sourceforge.net/DTD/sodipodi-0.dtd"
   xmlns:inkscape="http://www.inkscape.org/namespaces/inkscape"
   width="1000"
   height="300"
   viewBox="0 0 264.58332 79.375002"
   version="1.1"
   id="svg4515"
   inkscape:version="0.92.1 r15371"
   sodipodi:docname="banner-pnyx.svg">
  <defs
     id="defs4509" />
  <sodipodi:namedview
     id="base"
     pagecolor="#ffffff"
     bordercolor="#666666"
     borderopacity="1.0"
     inkscape:pageopacity="0.0"
     inkscape:pageshadow="2"
     inkscape:zoom="0.41328458"
     inkscape:cx="257.55179"
     inkscape:cy="115.06671"
     inkscape:document-units="mm"
     inkscape:current-layer="layer1"
     showgrid="false"
     units="px"
     inkscape:snap-global="false"
     inkscape:window-width="1920"
     inkscape:window-height="999"
     inkscape:window-x="0"
     inkscape:window-y="24"
     inkscape:window-maximized="1" />
  <metadata
     id="metadata4512">
    <rdf:RDF>
      <cc:Work
         rdf:about="">
        <dc:format>image/svg+xml</dc:format>
        <dc:type
           rdf:resource="http://purl.org/dc/dcmitype/StillImage" />
        <dc:title></dc:title>
      </cc:Work>
    </rdf:RDF>
  </metadata>
  <g
     inkscape:label="Layer 1"
     inkscape:groupmode="layer"
     id="layer1"
     transform="translate(0,-217.62499)">
    <rect
       style="opacity:1;fill:#d4f5ff;fill-opacity:1;stroke:none;stroke-width:3.86565208;stroke-linecap:round;stroke-linejoin:round;stroke-miterlimit:4;stroke-dasharray:none;stroke-dashoffset:0;stroke-opacity:1"
       id="rect4485"
       width="79.375"
       height="264.58334"
       x="217.62498"
       y="-264.58334"
       ry="0"
       inkscape:export-xdpi="96"
       inkscape:export-ydpi="96"
       transform="rotate(90)" />
    <path
       inkscape:connector-curvature="0"
       id="path5214"
       d="m 253.05936,232.60845 a 2.2435836,2.2435836 0 0 0 -1.58878,1.60009 2.6291996,2.6291996 0 0 0 -0.25438,0.0548 2.6291996,2.6291996 0 0 0 -1.59235,1.22069 2.8395356,2.8395356 0 0 0 -0.5966,0.0918 2.8395356,2.8395356 0 0 0 -2.00779,3.47761 2.8395356,2.8395356 0 0 0 2.60774,2.10033 3.0498717,3.0498717 0 0 0 0.0505,0.23592 3.0498717,3.0498717 0 0 0 3.73552,2.15651 3.0498717,3.0498717 0 0 0 1.31354,-0.74125 3.8561595,3.8561595 0 0 0 2.24673,0.0778 3.8561595,3.8561595 0 0 0 0.97866,-0.41499 l 1.74166,1.00555 -0.56386,-2.10432 a 3.8561595,3.8561595 0 0 0 0.57013,-3.20914 3.8561595,3.8561595 0 0 0 -0.41124,-0.97322 2.7343677,2.7343677 0 0 0 0.35796,-2.20617 2.7343677,2.7343677 0 0 0 -3.34902,-1.93356 2.7343677,2.7343677 0 0 0 -0.85162,0.39826 2.2435836,2.2435836 0 0 0 -2.38715,-0.83698 z"
       style="opacity:1;fill:#68a8bb;fill-opacity:1;stroke:none;stroke-width:5.60723829;stroke-linecap:round;stroke-linejoin:round;stroke-miterlimit:4;stroke-dasharray:none;stroke-dashoffset:0;stroke-opacity:1" />
    <path
       style="opacity:1;fill:#68a8bb;fill-opacity:1;stroke:none;stroke-width:2.75910902;stroke-linecap:round;stroke-linejoin:round;stroke-miterlimit:4;stroke-dasharray:none;stroke-dashoffset:0;stroke-opacity:1"
       d="m 184.37986,265.04398 a 2.6834272,4.3418768 77.63507 0 1 4.81583,1.69147 2.6834272,4.3418768 77.63507 0 1 -3.66658,3.5509 2.6834272,4.3418768 77.63507 0 1 -1.35733,0.15585 l -1.59492,1.4544 0.0752,-1.63393 a 2.6834272,4.3418768 77.63507 0 1 -1.93867,-1.66771 2.6834272,4.3418768 77.63507 0 1 3.66645,-3.55098 z"
       id="path4509"
       inkscape:connector-curvature="0" />
    <path
       style="opacity:1;fill:#68a8bb;fill-opacity:1;stroke:none;stroke-width:4.08568907;stroke-linecap:round;stroke-linejoin:round;stroke-miterlimit:4;stroke-dasharray:none;stroke-dashoffset:0;stroke-opacity:1"
       d="m 180.61158,242.49174 c 0.57763,0.13998 0.92999,0.71777 0.79,1.2954 l -1.20924,4.98968 c -0.13999,0.57763 -0.71778,0.92999 -1.29539,0.79 l -0.79426,-0.19248 -0.46925,1.93625 -1.46701,-2.4055 -5.61046,-1.35969 c -0.57763,-0.13999 -0.93,-0.71778 -0.79002,-1.2954 l 1.20925,-4.98969 c 0.13999,-0.57762 0.71778,-0.92998 1.29541,-0.78999 z"
       id="rect4514"
       inkscape:connector-curvature="0" />
    <path
       style="opacity:1;fill:#68a8bb;fill-opacity:1;stroke:none;stroke-width:5.60723829;stroke-linecap:round;stroke-linejoin:round;stroke-miterlimit:4;stroke-dasharray:none;stroke-dashoffset:0;stroke-opacity:1"
       d="m 156.95714,245.11377 a 2.2435836,2.2435836 0 0 0 -1.94854,1.13476 2.6291996,2.6291996 0 0 0 -0.2599,-0.0129 2.6291996,2.6291996 0 0 0 -1.85403,0.76697 2.8395356,2.8395356 0 0 0 -0.60004,-0.0657 2.8395356,2.8395356 0 0 0 -2.83944,2.83945 2.8395356,2.8395356 0 0 0 1.97528,2.7037 3.0498717,3.0498717 0 0 0 -0.0123,0.24095 3.0498717,3.0498717 0 0 0 3.05009,3.04985 3.0498717,3.0498717 0 0 0 1.46063,-0.37602 3.8561595,3.8561595 0 0 0 2.15003,0.65664 3.8561595,3.8561595 0 0 0 1.05273,-0.14755 l 1.42206,1.42206 v -2.17856 a 3.8561595,3.8561595 0 0 0 1.38128,-2.95223 3.8561595,3.8561595 0 0 0 -0.14533,-1.04649 2.7343677,2.7343677 0 0 0 0.91676,-2.03836 2.7343677,2.7343677 0 0 0 -2.73446,-2.73446 2.7343677,2.7343677 0 0 0 -0.92568,0.16427 2.2435836,2.2435836 0 0 0 -2.08918,-1.4263 z"
       id="path4519"
       inkscape:connector-curvature="0" />
    <path
       inkscape:connector-curvature="0"
       id="path4536"
       d="m 245.98447,257.2552 a 2.2435836,2.2435836 0 0 1 1.35572,1.80181 2.6291996,2.6291996 0 0 1 0.24455,0.0889 2.6291996,2.6291996 0 0 1 1.41129,1.42615 2.8395356,2.8395356 0 0 1 0.57853,0.17224 2.8395356,2.8395356 0 0 1 1.51553,3.71861 2.8395356,2.8395356 0 0 1 -2.86945,1.72567 3.0498717,3.0498717 0 0 1 -0.0821,0.22685 3.0498717,3.0498717 0 0 1 -3.99437,1.62775 3.0498717,3.0498717 0 0 1 -1.20037,-0.91321 3.8561595,3.8561595 0 0 1 -2.23639,-0.22887 3.8561595,3.8561595 0 0 1 -0.91304,-0.54439 l -1.86237,0.75902 0.84515,-2.00794 a 3.8561595,3.8561595 0 0 1 -0.12781,-3.25689 3.8561595,3.8561595 0 0 1 0.53992,-0.90816 2.7343677,2.7343677 0 0 1 -0.0542,-2.23437 2.7343677,2.7343677 0 0 1 3.58112,-1.4595 2.7343677,2.7343677 0 0 1 0.78945,0.51051 2.2435836,2.2435836 0 0 1 2.47889,-0.50412 z"
       style="opacity:1;fill:#68a8bb;fill-opacity:1;stroke:none;stroke-width:5.60723829;stroke-linecap:round;stroke-linejoin:round;stroke-miterlimit:4;stroke-dasharray:none;stroke-dashoffset:0;stroke-opacity:1" />
    <path
       style="opacity:1;fill:#68a8bb;fill-opacity:1;stroke:none;stroke-width:7.64998293;stroke-linecap:round;stroke-linejoin:round;stroke-miterlimit:4;stroke-dasharray:none;stroke-dashoffset:0;stroke-opacity:1"
       d="m 199.64715,251.63923 a 3.0609323,3.0609323 0 0 1 2.85435,1.14742 3.5870301,3.5870301 0 0 1 0.34832,-0.0687 3.5870301,3.5870301 0 0 1 2.65419,0.66955 3.8739927,3.8739927 0 0 1 0.79706,-0.20704 3.8739927,3.8739927 0 0 1 4.39339,3.2729 3.8739927,3.8739927 0 0 1 -2.13311,4.03963 4.160955,4.160955 0 0 1 0.0642,0.32284 4.160955,4.160955 0 0 1 -3.51573,4.71899 4.160955,4.160955 0 0 1 -2.04599,-0.21943 5.2609776,5.2609776 0 0 1 -2.77291,1.31066 5.2609776,5.2609776 0 0 1 -1.45025,0.009 l -1.63915,2.20031 -0.42984,-2.94097 a 5.2609776,5.2609776 0 0 1 -2.44717,-3.71286 5.2609776,5.2609776 0 0 1 -0.0103,-1.4414 3.7305112,3.7305112 0 0 1 -1.63977,-2.57083 3.7305112,3.7305112 0 0 1 3.1519,-4.23095 3.7305112,3.7305112 0 0 1 1.28204,0.0391 3.0609323,3.0609323 0 0 1 2.5389,-2.33766 z"
       id="path4538"
       inkscape:connector-curvature="0" />
    <path
       inkscape:connector-curvature="0"
       id="path4540"
       d="m 164.90099,260.8991 a 9.0544375,5.5959497 13.433109 0 0 -10.10684,3.3395 9.0544375,5.5959497 13.433109 0 0 7.50685,7.54621 9.0544375,5.5959497 13.433109 0 0 2.82401,0.37773 l 3.26885,3.09441 -0.0933,-3.40966 a 9.0544375,5.5959497 13.433109 0 0 4.10699,-3.40183 9.0544375,5.5959497 13.433109 0 0 -7.50656,-7.54636 z"
       style="opacity:1;fill:#68a8bb;fill-opacity:1;stroke:none;stroke-width:5.75377417;stroke-linecap:round;stroke-linejoin:round;stroke-miterlimit:4;stroke-dasharray:none;stroke-dashoffset:0;stroke-opacity:1" />
    <path
       inkscape:connector-curvature="0"
       id="path4542"
       d="m 213.33393,246.88396 c -0.71386,0.17299 -1.14932,0.88704 -0.97631,1.6009 l 1.49442,6.16643 c 0.17301,0.71384 0.88706,1.14931 1.60089,0.97631 l 0.98158,-0.23788 0.57991,2.39289 1.81299,-2.9728 6.9336,-1.68036 c 0.71386,-0.173 1.14933,-0.88706 0.97633,-1.60091 l -1.49443,-6.16644 c -0.173,-0.71384 -0.88705,-1.1493 -1.60092,-0.97629 z"
       style="opacity:1;fill:#68a8bb;fill-opacity:1;stroke:none;stroke-width:5.04924107;stroke-linecap:round;stroke-linejoin:round;stroke-miterlimit:4;stroke-dasharray:none;stroke-dashoffset:0;stroke-opacity:1" />
    <path
       inkscape:connector-curvature="0"
       id="path4544"
       d="m 252.28329,251.82729 a 2.7608623,1.7063065 36.728328 0 0 -3.23322,-0.28347 2.7608623,1.7063065 36.728328 0 0 1.1924,3.01861 2.7608623,1.7063065 36.728328 0 0 0.74535,0.44632 l 0.54234,1.26081 0.38502,-0.96616 a 2.7608623,1.7063065 36.728328 0 0 1.56042,-0.45748 2.7608623,1.7063065 36.728328 0 0 -1.19231,-3.01863 z"
       style="opacity:1;fill:#68a8bb;fill-opacity:1;stroke:none;stroke-width:1.75443006;stroke-linecap:round;stroke-linejoin:round;stroke-miterlimit:4;stroke-dasharray:none;stroke-dashoffset:0;stroke-opacity:1" />
    <path
       inkscape:connector-curvature="0"
       id="path4546"
       d="m 188.16721,248.27218 c -0.33873,-0.12406 -0.71133,0.0487 -0.83544,0.38744 l -1.07192,2.92593 c -0.12407,0.33873 0.0487,0.71134 0.38741,0.83544 l 0.46576,0.17063 -0.41596,1.13541 1.55137,-0.71945 3.28995,1.20531 c 0.33873,0.12406 0.71134,-0.0487 0.83544,-0.38743 l 1.07195,-2.92594 c 0.12405,-0.33873 -0.0487,-0.71134 -0.38745,-0.83543 z"
       style="opacity:1;fill:#68a8bb;fill-opacity:1;stroke:none;stroke-width:2.47976899;stroke-linecap:round;stroke-linejoin:round;stroke-miterlimit:4;stroke-dasharray:none;stroke-dashoffset:0;stroke-opacity:1" />
    <path
       style="opacity:1;fill:#68a8bb;fill-opacity:1;stroke:none;stroke-width:2.6898334;stroke-linecap:round;stroke-linejoin:round;stroke-miterlimit:4;stroke-dasharray:none;stroke-dashoffset:0;stroke-opacity:1"
       d="m 144.85371,257.9756 a 4.2328613,2.6160519 28.797615 0 1 2.44919,4.33162 4.2328613,2.6160519 28.797615 0 1 -4.96958,0.25342 4.2328613,2.6160519 28.797615 0 1 -1.09622,-0.75658 l -2.1038,0.044 1.10363,-1.15094 a 4.2328613,2.6160519 28.797615 0 1 -0.35275,-2.468 4.2328613,2.6160519 28.797615 0 1 4.96953,-0.25355 z"
       id="path4550"
       inkscape:connector-curvature="0" />
    <path
       style="opacity:1;fill:#68a8bb;fill-opacity:1;stroke:none;stroke-width:1.45551968;stroke-linecap:round;stroke-linejoin:round;stroke-miterlimit:4;stroke-dasharray:none;stroke-dashoffset:0;stroke-opacity:1"
       d="m 178.57936,257.95144 c -0.18077,-0.11025 -0.41508,-0.0534 -0.52532,0.12731 l -0.95231,1.56155 c -0.11025,0.18077 -0.0534,0.41508 0.1273,0.52533 l 0.24857,0.15159 -0.36954,0.60595 0.9755,-0.2364 1.75582,1.07079 c 0.18078,0.11025 0.41509,0.0534 0.52533,-0.12732 l 0.95232,-1.56155 c 0.11023,-0.18077 0.0534,-0.41507 -0.12733,-0.52532 z"
       id="path4554"
       inkscape:connector-curvature="0" />
    <path
       style="opacity:1;fill:#68a8bb;fill-opacity:1;stroke:none;stroke-width:2.24420524;stroke-linecap:round;stroke-linejoin:round;stroke-miterlimit:4;stroke-dasharray:none;stroke-dashoffset:0;stroke-opacity:1"
       d="m 171.41321,253.20562 a 0.8979576,0.8979576 0 0 1 0.5426,0.72114 1.0522941,1.0522941 0 0 1 0.0979,0.0356 1.0522941,1.0522941 0 0 1 0.56485,0.57079 1.1364776,1.1364776 0 0 1 0.23154,0.0689 1.1364776,1.1364776 0 0 1 0.60658,1.48831 1.1364776,1.1364776 0 0 1 -1.14846,0.69067 1.2206612,1.2206612 0 0 1 -0.0329,0.0908 1.2206612,1.2206612 0 0 1 -1.59868,0.65148 1.2206612,1.2206612 0 0 1 -0.48043,-0.36549 1.5433647,1.5433647 0 0 1 -0.89507,-0.0916 1.5433647,1.5433647 0 0 1 -0.36543,-0.21788 l -0.74538,0.30379 0.33826,-0.80365 a 1.5433647,1.5433647 0 0 1 -0.0512,-1.30351 1.5433647,1.5433647 0 0 1 0.21609,-0.36348 1.0943859,1.0943859 0 0 1 -0.0217,-0.89427 1.0943859,1.0943859 0 0 1 1.43328,-0.58414 1.0943859,1.0943859 0 0 1 0.31596,0.20433 0.8979576,0.8979576 0 0 1 0.99214,-0.20177 z"
       id="path4556"
       inkscape:connector-curvature="0" />
    <path
       style="opacity:1;fill:#68a8bb;fill-opacity:1;stroke:none;stroke-width:4.11264849;stroke-linecap:round;stroke-linejoin:round;stroke-miterlimit:4;stroke-dasharray:none;stroke-dashoffset:0;stroke-opacity:1"
       d="m 201.44429,236.88809 c -0.595,-0.0625 -1.12435,0.3663 -1.18681,0.96131 l -0.53961,5.13975 c -0.0625,0.59501 0.36632,1.12435 0.96129,1.18682 l 0.81816,0.0859 -0.2094,1.99449 2.2039,-1.78509 5.77919,0.60672 c 0.595,0.0625 1.12437,-0.3663 1.18684,-0.9613 l 0.53959,-5.13975 c 0.0625,-0.595 -0.36631,-1.12435 -0.96132,-1.18681 z"
       id="path4596"
       inkscape:connector-curvature="0" />
    <path
       style="opacity:1;fill:#68a8bb;fill-opacity:1;stroke:none;stroke-width:3.48621154;stroke-linecap:round;stroke-linejoin:round;stroke-miterlimit:4;stroke-dasharray:none;stroke-dashoffset:0;stroke-opacity:1"
       d="m 253.4332,266.87874 c -0.38915,0.32521 -0.44071,0.90029 -0.11557,1.2895 l 2.80886,3.3618 c 0.3252,0.38917 0.90031,0.44073 1.28948,0.11556 l 0.53514,-0.44712 1.08998,1.30454 0.21458,-2.39452 3.78009,-3.15831 c 0.38915,-0.32519 0.44073,-0.9003 0.11557,-1.28948 l -2.80886,-3.36185 c -0.32522,-0.38915 -0.9003,-0.44074 -1.2895,-0.11557 z"
       id="path5210"
       inkscape:connector-curvature="0" />
    <path
       inkscape:connector-curvature="0"
       id="path5212"
       d="m 267.5289,248.57167 c 0.595,-0.0625 1.12435,0.3663 1.18681,0.96131 l 0.53961,5.13975 c 0.0625,0.59501 -0.36632,1.12435 -0.96129,1.18682 l -0.81816,0.0859 0.2094,1.99449 -2.2039,-1.78509 -5.77919,0.60672 c -0.595,0.0625 -1.12437,-0.3663 -1.18684,-0.9613 l -0.53959,-5.13975 c -0.0625,-0.595 0.36631,-1.12435 0.96132,-1.18681 z"
       style="opacity:1;fill:#68a8bb;fill-opacity:1;stroke:none;stroke-width:4.11264849;stroke-linecap:round;stroke-linejoin:round;stroke-miterlimit:4;stroke-dasharray:none;stroke-dashoffset:0;stroke-opacity:1" />
    <path
       style="opacity:1;fill:#68a8bb;fill-opacity:1;stroke:none;stroke-width:4.08960438;stroke-linecap:round;stroke-linejoin:round;stroke-miterlimit:4;stroke-dasharray:none;stroke-dashoffset:0;stroke-opacity:1"
       d="m 202.19281,271.7897 a 1.6363438,1.6363438 0 0 1 1.63825,-0.14429 1.9175904,1.9175904 0 0 1 0.14932,-0.11712 1.9175904,1.9175904 0 0 1 1.42713,-0.32357 2.0709977,2.0709977 0 0 1 0.32975,-0.29169 2.0709977,2.0709977 0 0 1 2.88642,0.49607 2.0709977,2.0709977 0 0 1 -0.0385,2.44181 2.224405,2.224405 0 0 1 0.10875,0.13834 2.224405,2.224405 0 0 1 -0.53297,3.1004 2.224405,2.224405 0 0 1 -1.02825,0.39084 2.812466,2.812466 0 0 1 -1.00423,1.29611 2.812466,2.812466 0 0 1 -0.68913,0.35523 l -0.24845,1.44559 -0.91699,-1.29759 a 2.812466,2.812466 0 0 1 -2.06538,-1.17704 2.812466,2.812466 0 0 1 -0.35393,-0.68449 1.9942941,1.9942941 0 0 1 -1.40401,-0.82823 1.9942941,1.9942941 0 0 1 0.47772,-2.77971 1.9942941,1.9942941 0 0 1 0.6205,-0.29179 1.6363438,1.6363438 0 0 1 0.64402,-1.72893 z"
       id="path4600"
       inkscape:connector-curvature="0" />
    <path
       inkscape:connector-curvature="0"
       id="path4604"
       d="m 241.91236,274.34219 a 10.790516,6.6689049 28.797615 0 1 6.24353,11.04227 10.790516,6.6689049 28.797615 0 1 -12.66857,0.64603 10.790516,6.6689049 28.797615 0 1 -2.79451,-1.9287 l -5.36306,0.11217 2.8134,-2.93401 a 10.790516,6.6689049 28.797615 0 1 -0.89924,-6.29148 10.790516,6.6689049 28.797615 0 1 12.66845,-0.64636 z"
       style="opacity:1;fill:#68a8bb;fill-opacity:1;stroke:none;stroke-width:6.85699034;stroke-linecap:round;stroke-linejoin:round;stroke-miterlimit:4;stroke-dasharray:none;stroke-dashoffset:0;stroke-opacity:1" />
    <path
       style="opacity:1;fill:#68a8bb;fill-opacity:1;stroke:none;stroke-width:2.38143325;stroke-linecap:round;stroke-linejoin:round;stroke-miterlimit:4;stroke-dasharray:none;stroke-dashoffset:0;stroke-opacity:1"
       d="m 250.25866,274.48547 c -0.34454,-0.0362 -0.65106,0.21211 -0.68723,0.55665 l -0.31246,2.97618 c -0.0362,0.34454 0.21212,0.65105 0.55664,0.68723 l 0.47375,0.0497 -0.12125,1.15491 1.27617,-1.03366 3.34645,0.35132 c 0.34453,0.0362 0.65106,-0.2121 0.68724,-0.55664 l 0.31245,-2.97618 c 0.0362,-0.34453 -0.21212,-0.65105 -0.55666,-0.68722 z"
       id="path4606"
       inkscape:connector-curvature="0" />
    <path
       inkscape:connector-curvature="0"
       id="path4608"
       d="m 258.53891,282.02338 a 1.0559831,1.0559831 0 0 0 -0.63809,0.84805 1.2374803,1.2374803 0 0 0 -0.11513,0.0419 1.2374803,1.2374803 0 0 0 -0.66425,0.67124 1.3364787,1.3364787 0 0 0 -0.27229,0.081 1.3364787,1.3364787 0 0 0 -0.71333,1.75023 1.3364787,1.3364787 0 0 0 1.35057,0.81221 1.4354772,1.4354772 0 0 0 0.0387,0.10678 1.4354772,1.4354772 0 0 0 1.88002,0.76613 1.4354772,1.4354772 0 0 0 0.56498,-0.42981 1.8149711,1.8149711 0 0 0 1.05259,-0.10772 1.8149711,1.8149711 0 0 0 0.42974,-0.25622 l 0.87655,0.35725 -0.39779,-0.94508 a 1.8149711,1.8149711 0 0 0 0.0602,-1.5329 1.8149711,1.8149711 0 0 0 -0.25412,-0.42745 1.2869795,1.2869795 0 0 0 0.0255,-1.05165 1.2869795,1.2869795 0 0 0 -1.68551,-0.68693 1.2869795,1.2869795 0 0 0 -0.37156,0.24028 1.0559831,1.0559831 0 0 0 -1.16674,-0.23727 z"
       style="opacity:1;fill:#68a8bb;fill-opacity:1;stroke:none;stroke-width:2.63914776;stroke-linecap:round;stroke-linejoin:round;stroke-miterlimit:4;stroke-dasharray:none;stroke-dashoffset:0;stroke-opacity:1" />
    <g
       id="g4507"
       transform="matrix(-0.48676,-0.18518847,-0.35558632,0.93464344,499.98163,30.872051)">
      <rect
         style="opacity:1;fill:#2e74e7;fill-opacity:1;stroke:none;stroke-width:1.11591768;stroke-linecap:round;stroke-linejoin:round;stroke-miterlimit:4;stroke-dasharray:none;stroke-dashoffset:0;stroke-opacity:1"
         id="rect4487"
         width="13.229167"
         height="132.29167"
         x="307.97961"
         y="242.39374"
         ry="0" />
      <rect
         ry="0"
         y="242.39374"
         x="321.20877"
         height="132.29167"
         width="13.229167"
         id="rect4489"
         style="opacity:1;fill:#09af38;fill-opacity:1;stroke:none;stroke-width:1.11591768;stroke-linecap:round;stroke-linejoin:round;stroke-miterlimit:4;stroke-dasharray:none;stroke-dashoffset:0;stroke-opacity:1" />
      <rect
         style="opacity:1;fill:#eead00;fill-opacity:1;stroke:none;stroke-width:1.11591768;stroke-linecap:round;stroke-linejoin:round;stroke-miterlimit:4;stroke-dasharray:none;stroke-dashoffset:0;stroke-opacity:1"
         id="rect4491"
         width="13.229167"
         height="132.29167"
         x="334.43793"
         y="242.39374"
         ry="0" />
      <rect
         ry="0"
         y="242.39374"
         x="347.66708"
         height="132.29167"
         width="13.229167"
         id="rect4493"
         style="opacity:1;fill:#dc2f20;fill-opacity:1;stroke:none;stroke-width:1.11591768;stroke-linecap:round;stroke-linejoin:round;stroke-miterlimit:4;stroke-dasharray:none;stroke-dashoffset:0;stroke-opacity:1" />
    </g>
  </g>
</svg>
