<?xml version="1.0" encoding="UTF-8" standalone="no"?>
<!-- Created with Inkscape (http://www.inkscape.org/) -->

<svg
   xmlns:dc="http://purl.org/dc/elements/1.1/"
   xmlns:cc="http://creativecommons.org/ns#"
   xmlns:rdf="http://www.w3.org/1999/02/22-rdf-syntax-ns#"
   xmlns:svg="http://www.w3.org/2000/svg"
   xmlns="http://www.w3.org/2000/svg"
   xmlns:sodipodi="http://sodipodi.sourceforge.net/DTD/sodipodi-0.dtd"
   xmlns:inkscape="http://www.inkscape.org/namespaces/inkscape"
   width="1000"
   height="100"
   viewBox="0 0 264.58332 26.458334"
   version="1.1"
   id="svg4515"
   inkscape:version="0.92.1 r15371"
   sodipodi:docname="banner-pnyx.svg">
  <defs
     id="defs4509" />
  <sodipodi:namedview
     id="base"
     pagecolor="#ffffff"
     bordercolor="#666666"
     borderopacity="1.0"
     inkscape:pageopacity="0.0"
     inkscape:pageshadow="2"
     inkscape:zoom="0.58447266"
     inkscape:cx="717.64073"
     inkscape:cy="-42.424938"
     inkscape:document-units="mm"
     inkscape:current-layer="layer1"
     showgrid="false"
     units="px"
     inkscape:snap-global="false"
     inkscape:window-width="1920"
     inkscape:window-height="999"
     inkscape:window-x="0"
     inkscape:window-y="24"
     inkscape:window-maximized="1" />
  <metadata
     id="metadata4512">
    <rdf:RDF>
      <cc:Work
         rdf:about="">
        <dc:format>image/svg+xml</dc:format>
        <dc:type
           rdf:resource="http://purl.org/dc/dcmitype/StillImage" />
        <dc:title></dc:title>
      </cc:Work>
    </rdf:RDF>
  </metadata>
  <g
     inkscape:label="Layer 1"
     inkscape:groupmode="layer"
     id="layer1"
     transform="translate(0,-270.54166)">
    <rect
       style="opacity:1;fill:#d4f5ff;fill-opacity:1;stroke:none;stroke-width:2.23183537;stroke-linecap:round;stroke-linejoin:round;stroke-miterlimit:4;stroke-dasharray:none;stroke-dashoffset:0;stroke-opacity:1"
       id="rect4485"
       width="26.458334"
       height="264.58334"
       x="270.54166"
       y="-264.58334"
       ry="0"
       inkscape:export-xdpi="96"
       inkscape:export-ydpi="96"
       transform="rotate(90)" />
    <path
       inkscape:connector-curvature="0"
       id="path5214"
       d="m 249.98124,266.2947 a 2.2435836,2.2435836 0 0 0 0.008,2.25487 2.6291996,2.6291996 0 0 0 -0.14112,0.21863 2.6291996,2.6291996 0 0 0 -0.2628,1.98912 2.8395356,2.8395356 0 0 0 -0.35692,0.4868 2.8395356,2.8395356 0 0 0 1.03932,3.87875 2.8395356,2.8395356 0 0 0 3.32911,-0.35879 3.0498717,3.0498717 0 0 0 0.20252,0.13113 3.0498717,3.0498717 0 0 0 4.16629,-1.11653 3.0498717,3.0498717 0 0 0 0.40467,-1.45296 3.8561595,3.8561595 0 0 0 1.64369,-1.53366 3.8561595,3.8561595 0 0 0 0.39858,-0.98546 l 1.94257,-0.52051 -1.88669,-1.08928 a 3.8561595,3.8561595 0 0 0 -1.86606,-2.67234 3.8561595,3.8561595 0 0 0 -0.97896,-0.39739 2.7343677,2.7343677 0 0 0 -1.30689,-1.81311 2.7343677,2.7343677 0 0 0 -3.73534,1.00088 2.7343677,2.7343677 0 0 0 -0.32058,0.8838 2.2435836,2.2435836 0 0 0 -2.2798,1.09613 z"
       style="opacity:1;fill:#68a8bb;fill-opacity:1;stroke:none;stroke-width:5.60723829;stroke-linecap:round;stroke-linejoin:round;stroke-miterlimit:4;stroke-dasharray:none;stroke-dashoffset:0;stroke-opacity:1" />
    <path
       style="opacity:1;fill:#68a8bb;fill-opacity:1;stroke:none;stroke-width:2.75910902;stroke-linecap:round;stroke-linejoin:round;stroke-miterlimit:4;stroke-dasharray:none;stroke-dashoffset:0;stroke-opacity:1"
       d="m 184.37986,292.57343 a 2.6834272,4.3418768 77.63507 0 1 4.81583,1.69147 2.6834272,4.3418768 77.63507 0 1 -3.66658,3.5509 2.6834272,4.3418768 77.63507 0 1 -1.35733,0.15585 l -1.59492,1.4544 0.0752,-1.63393 a 2.6834272,4.3418768 77.63507 0 1 -1.93867,-1.66771 2.6834272,4.3418768 77.63507 0 1 3.66645,-3.55098 z"
       id="path4509"
       inkscape:connector-curvature="0" />
    <path
       style="opacity:1;fill:#68a8bb;fill-opacity:1;stroke:none;stroke-width:4.08568907;stroke-linecap:round;stroke-linejoin:round;stroke-miterlimit:4;stroke-dasharray:none;stroke-dashoffset:0;stroke-opacity:1"
       d="m 180.61158,270.02119 c 0.57763,0.13998 0.92999,0.71777 0.79,1.2954 l -1.20924,4.98968 c -0.13999,0.57763 -0.71778,0.92999 -1.29539,0.79 l -0.79426,-0.19248 -0.46925,1.93625 -1.46701,-2.4055 -5.61046,-1.35969 c -0.57763,-0.13999 -0.93,-0.71778 -0.79002,-1.2954 l 1.20925,-4.98969 c 0.13999,-0.57762 0.71778,-0.92998 1.29541,-0.78999 z"
       id="rect4514"
       inkscape:connector-curvature="0" />
    <path
       style="opacity:1;fill:#68a8bb;fill-opacity:1;stroke:none;stroke-width:5.60723829;stroke-linecap:round;stroke-linejoin:round;stroke-miterlimit:4;stroke-dasharray:none;stroke-dashoffset:0;stroke-opacity:1"
       d="m 156.95714,272.64322 a 2.2435836,2.2435836 0 0 0 -1.94854,1.13476 2.6291996,2.6291996 0 0 0 -0.2599,-0.0129 2.6291996,2.6291996 0 0 0 -1.85403,0.76697 2.8395356,2.8395356 0 0 0 -0.60004,-0.0657 2.8395356,2.8395356 0 0 0 -2.83944,2.83945 2.8395356,2.8395356 0 0 0 1.97528,2.7037 3.0498717,3.0498717 0 0 0 -0.0123,0.24095 3.0498717,3.0498717 0 0 0 3.05009,3.04985 3.0498717,3.0498717 0 0 0 1.46063,-0.37602 3.8561595,3.8561595 0 0 0 2.15003,0.65664 3.8561595,3.8561595 0 0 0 1.05273,-0.14755 l 1.42206,1.42206 v -2.17856 a 3.8561595,3.8561595 0 0 0 1.38128,-2.95223 3.8561595,3.8561595 0 0 0 -0.14533,-1.04649 2.7343677,2.7343677 0 0 0 0.91676,-2.03836 2.7343677,2.7343677 0 0 0 -2.73446,-2.73446 2.7343677,2.7343677 0 0 0 -0.92568,0.16427 2.2435836,2.2435836 0 0 0 -2.08918,-1.4263 z"
       id="path4519"
       inkscape:connector-curvature="0" />
    <path
       inkscape:connector-curvature="0"
       id="path4536"
       d="m 245.98447,284.78465 a 2.2435836,2.2435836 0 0 1 1.35572,1.80181 2.6291996,2.6291996 0 0 1 0.24455,0.0889 2.6291996,2.6291996 0 0 1 1.41129,1.42615 2.8395356,2.8395356 0 0 1 0.57853,0.17223 2.8395356,2.8395356 0 0 1 1.51553,3.71861 2.8395356,2.8395356 0 0 1 -2.86945,1.72567 3.0498717,3.0498717 0 0 1 -0.0821,0.22685 3.0498717,3.0498717 0 0 1 -3.99437,1.62775 3.0498717,3.0498717 0 0 1 -1.20037,-0.91321 3.8561595,3.8561595 0 0 1 -2.23639,-0.22887 3.8561595,3.8561595 0 0 1 -0.91304,-0.54439 l -1.86237,0.75902 0.84515,-2.00794 a 3.8561595,3.8561595 0 0 1 -0.12781,-3.25688 3.8561595,3.8561595 0 0 1 0.53992,-0.90816 2.7343677,2.7343677 0 0 1 -0.0542,-2.23437 2.7343677,2.7343677 0 0 1 3.58112,-1.4595 2.7343677,2.7343677 0 0 1 0.78945,0.51051 2.2435836,2.2435836 0 0 1 2.47889,-0.50412 z"
       style="opacity:1;fill:#68a8bb;fill-opacity:1;stroke:none;stroke-width:5.60723829;stroke-linecap:round;stroke-linejoin:round;stroke-miterlimit:4;stroke-dasharray:none;stroke-dashoffset:0;stroke-opacity:1" />
    <path
       style="opacity:1;fill:#68a8bb;fill-opacity:1;stroke:none;stroke-width:7.64998293;stroke-linecap:round;stroke-linejoin:round;stroke-miterlimit:4;stroke-dasharray:none;stroke-dashoffset:0;stroke-opacity:1"
       d="m 199.64715,279.16868 a 3.0609323,3.0609323 0 0 1 2.85435,1.14742 3.5870301,3.5870301 0 0 1 0.34832,-0.0687 3.5870301,3.5870301 0 0 1 2.65419,0.66956 3.8739927,3.8739927 0 0 1 0.79706,-0.20704 3.8739927,3.8739927 0 0 1 4.39339,3.2729 3.8739927,3.8739927 0 0 1 -2.13311,4.03963 4.160955,4.160955 0 0 1 0.0642,0.32284 4.160955,4.160955 0 0 1 -3.51573,4.71899 4.160955,4.160955 0 0 1 -2.04599,-0.21943 5.2609776,5.2609776 0 0 1 -2.77291,1.31066 5.2609776,5.2609776 0 0 1 -1.45025,0.009 l -1.63915,2.2003 -0.42984,-2.94097 a 5.2609776,5.2609776 0 0 1 -2.44717,-3.71286 5.2609776,5.2609776 0 0 1 -0.0103,-1.4414 3.7305112,3.7305112 0 0 1 -1.63977,-2.57083 3.7305112,3.7305112 0 0 1 3.1519,-4.23095 3.7305112,3.7305112 0 0 1 1.28204,0.0391 3.0609323,3.0609323 0 0 1 2.5389,-2.33766 z"
       id="path4538"
       inkscape:connector-curvature="0" />
    <path
       inkscape:connector-curvature="0"
       id="path4540"
       d="m 164.90099,288.42855 a 9.0544375,5.5959497 13.433109 0 0 -10.10684,3.3395 9.0544375,5.5959497 13.433109 0 0 7.50685,7.54621 9.0544375,5.5959497 13.433109 0 0 2.82401,0.37773 l 3.26885,3.09441 -0.0933,-3.40966 a 9.0544375,5.5959497 13.433109 0 0 4.10699,-3.40183 9.0544375,5.5959497 13.433109 0 0 -7.50656,-7.54636 z"
       style="opacity:1;fill:#68a8bb;fill-opacity:1;stroke:none;stroke-width:5.75377417;stroke-linecap:round;stroke-linejoin:round;stroke-miterlimit:4;stroke-dasharray:none;stroke-dashoffset:0;stroke-opacity:1" />
    <path
       inkscape:connector-curvature="0"
       id="path4542"
       d="m 213.33393,274.4134 c -0.71386,0.17299 -1.14932,0.88704 -0.97631,1.6009 l 1.49442,6.16643 c 0.17301,0.71385 0.88706,1.14931 1.60089,0.97631 l 0.98158,-0.23788 0.57991,2.39289 1.81299,-2.9728 6.9336,-1.68036 c 0.71386,-0.173 1.14933,-0.88706 0.97633,-1.6009 l -1.49443,-6.16644 c -0.173,-0.71384 -0.88705,-1.1493 -1.60092,-0.97629 z"
       style="opacity:1;fill:#68a8bb;fill-opacity:1;stroke:none;stroke-width:5.04924107;stroke-linecap:round;stroke-linejoin:round;stroke-miterlimit:4;stroke-dasharray:none;stroke-dashoffset:0;stroke-opacity:1" />
    <path
       inkscape:connector-curvature="0"
       id="path4544"
       d="m 252.28329,279.35674 a 2.7608623,1.7063065 36.728328 0 0 -3.23322,-0.28347 2.7608623,1.7063065 36.728328 0 0 1.1924,3.01861 2.7608623,1.7063065 36.728328 0 0 0.74535,0.44632 l 0.54234,1.26081 0.38502,-0.96617 a 2.7608623,1.7063065 36.728328 0 0 1.56042,-0.45748 2.7608623,1.7063065 36.728328 0 0 -1.19231,-3.01862 z"
       style="opacity:1;fill:#68a8bb;fill-opacity:1;stroke:none;stroke-width:1.75443006;stroke-linecap:round;stroke-linejoin:round;stroke-miterlimit:4;stroke-dasharray:none;stroke-dashoffset:0;stroke-opacity:1" />
    <path
       inkscape:connector-curvature="0"
       id="path4546"
       d="m 188.16721,275.80163 c -0.33873,-0.12406 -0.71133,0.0487 -0.83544,0.38744 l -1.07192,2.92592 c -0.12407,0.33874 0.0487,0.71135 0.38741,0.83544 l 0.46576,0.17063 -0.41596,1.13541 1.55137,-0.71944 3.28995,1.20531 c 0.33873,0.12406 0.71134,-0.0487 0.83544,-0.38743 l 1.07195,-2.92594 c 0.12405,-0.33873 -0.0487,-0.71134 -0.38745,-0.83543 z"
       style="opacity:1;fill:#68a8bb;fill-opacity:1;stroke:none;stroke-width:2.47976899;stroke-linecap:round;stroke-linejoin:round;stroke-miterlimit:4;stroke-dasharray:none;stroke-dashoffset:0;stroke-opacity:1" />
    <path
       style="opacity:1;fill:#68a8bb;fill-opacity:1;stroke:none;stroke-width:2.6898334;stroke-linecap:round;stroke-linejoin:round;stroke-miterlimit:4;stroke-dasharray:none;stroke-dashoffset:0;stroke-opacity:1"
       d="m 144.85371,285.50505 a 4.2328613,2.6160519 28.797615 0 1 2.44919,4.33162 4.2328613,2.6160519 28.797615 0 1 -4.96958,0.25342 4.2328613,2.6160519 28.797615 0 1 -1.09622,-0.75658 l -2.1038,0.044 1.10363,-1.15094 a 4.2328613,2.6160519 28.797615 0 1 -0.35275,-2.468 4.2328613,2.6160519 28.797615 0 1 4.96953,-0.25355 z"
       id="path4550"
       inkscape:connector-curvature="0" />
    <path
       style="opacity:1;fill:#68a8bb;fill-opacity:1;stroke:none;stroke-width:1.45551968;stroke-linecap:round;stroke-linejoin:round;stroke-miterlimit:4;stroke-dasharray:none;stroke-dashoffset:0;stroke-opacity:1"
       d="m 178.57936,285.48089 c -0.18077,-0.11025 -0.41508,-0.0534 -0.52532,0.12731 l -0.95231,1.56155 c -0.11025,0.18076 -0.0534,0.41508 0.1273,0.52532 l 0.24857,0.15159 -0.36954,0.60595 0.9755,-0.2364 1.75582,1.07079 c 0.18078,0.11025 0.41509,0.0534 0.52533,-0.12731 l 0.95232,-1.56155 c 0.11023,-0.18077 0.0534,-0.41507 -0.12733,-0.52532 z"
       id="path4554"
       inkscape:connector-curvature="0" />
    <path
       style="opacity:1;fill:#68a8bb;fill-opacity:1;stroke:none;stroke-width:2.24420524;stroke-linecap:round;stroke-linejoin:round;stroke-miterlimit:4;stroke-dasharray:none;stroke-dashoffset:0;stroke-opacity:1"
       d="m 171.41321,280.73507 a 0.8979576,0.8979576 0 0 1 0.5426,0.72114 1.0522941,1.0522941 0 0 1 0.0979,0.0356 1.0522941,1.0522941 0 0 1 0.56485,0.57079 1.1364776,1.1364776 0 0 1 0.23154,0.0689 1.1364776,1.1364776 0 0 1 0.60658,1.48831 1.1364776,1.1364776 0 0 1 -1.14846,0.69067 1.2206612,1.2206612 0 0 1 -0.0329,0.0908 1.2206612,1.2206612 0 0 1 -1.59868,0.65148 1.2206612,1.2206612 0 0 1 -0.48043,-0.36549 1.5433647,1.5433647 0 0 1 -0.89507,-0.0916 1.5433647,1.5433647 0 0 1 -0.36543,-0.21788 l -0.74538,0.30379 0.33826,-0.80365 a 1.5433647,1.5433647 0 0 1 -0.0512,-1.30351 1.5433647,1.5433647 0 0 1 0.21609,-0.36348 1.0943859,1.0943859 0 0 1 -0.0217,-0.89427 1.0943859,1.0943859 0 0 1 1.43328,-0.58414 1.0943859,1.0943859 0 0 1 0.31596,0.20433 0.8979576,0.8979576 0 0 1 0.99214,-0.20177 z"
       id="path4556"
       inkscape:connector-curvature="0" />
    <g
       id="g4507"
       transform="matrix(0.47513932,0.21324327,-0.40945522,0.91233021,194.9067,-67.964678)">
      <rect
         style="opacity:1;fill:#2e74e7;fill-opacity:1;stroke:none;stroke-width:1.11591768;stroke-linecap:round;stroke-linejoin:round;stroke-miterlimit:4;stroke-dasharray:none;stroke-dashoffset:0;stroke-opacity:1"
         id="rect4487"
         width="13.229167"
         height="132.29167"
         x="307.97961"
         y="242.39374"
         ry="0" />
      <rect
         ry="0"
         y="242.39374"
         x="321.20877"
         height="132.29167"
         width="13.229167"
         id="rect4489"
         style="opacity:1;fill:#09af38;fill-opacity:1;stroke:none;stroke-width:1.11591768;stroke-linecap:round;stroke-linejoin:round;stroke-miterlimit:4;stroke-dasharray:none;stroke-dashoffset:0;stroke-opacity:1" />
      <rect
         style="opacity:1;fill:#eead00;fill-opacity:1;stroke:none;stroke-width:1.11591768;stroke-linecap:round;stroke-linejoin:round;stroke-miterlimit:4;stroke-dasharray:none;stroke-dashoffset:0;stroke-opacity:1"
         id="rect4491"
         width="13.229167"
         height="132.29167"
         x="334.43793"
         y="242.39374"
         ry="0" />
      <rect
         ry="0"
         y="242.39374"
         x="347.66708"
         height="132.29167"
         width="13.229167"
         id="rect4493"
         style="opacity:1;fill:#dc2f20;fill-opacity:1;stroke:none;stroke-width:1.11591768;stroke-linecap:round;stroke-linejoin:round;stroke-miterlimit:4;stroke-dasharray:none;stroke-dashoffset:0;stroke-opacity:1" />
    </g>
    <path
       style="opacity:1;fill:#68a8bb;fill-opacity:1;stroke:none;stroke-width:4.11264849;stroke-linecap:round;stroke-linejoin:round;stroke-miterlimit:4;stroke-dasharray:none;stroke-dashoffset:0;stroke-opacity:1"
       d="m 201.44429,264.41754 c -0.595,-0.0625 -1.12435,0.3663 -1.18681,0.96131 l -0.53961,5.13975 c -0.0625,0.59501 0.36632,1.12435 0.96129,1.18682 l 0.81816,0.0859 -0.2094,1.99449 2.2039,-1.78509 5.77919,0.60672 c 0.595,0.0625 1.12437,-0.3663 1.18684,-0.9613 l 0.53959,-5.13975 c 0.0625,-0.595 -0.36631,-1.12435 -0.96132,-1.18681 z"
       id="path4596"
       inkscape:connector-curvature="0" />
    <path
       style="opacity:1;fill:#68a8bb;fill-opacity:1;stroke:none;stroke-width:3.48621154;stroke-linecap:round;stroke-linejoin:round;stroke-miterlimit:4;stroke-dasharray:none;stroke-dashoffset:0;stroke-opacity:1"
       d="m 253.4332,294.40819 c -0.38915,0.32521 -0.44071,0.90029 -0.11557,1.2895 l 2.80886,3.3618 c 0.3252,0.38917 0.90031,0.44073 1.28948,0.11556 l 0.53514,-0.44712 1.08998,1.30454 0.21458,-2.39452 3.78009,-3.15831 c 0.38915,-0.3252 0.44073,-0.9003 0.11557,-1.28948 l -2.80886,-3.36185 c -0.32522,-0.38915 -0.9003,-0.44074 -1.2895,-0.11557 z"
       id="path5210"
       inkscape:connector-curvature="0" />
    <path
       inkscape:connector-curvature="0"
       id="path5212"
       d="m 267.5289,276.10112 c 0.595,-0.0625 1.12435,0.3663 1.18681,0.96131 l 0.53961,5.13975 c 0.0625,0.59501 -0.36632,1.12435 -0.96129,1.18682 l -0.81816,0.0859 0.2094,1.99449 -2.2039,-1.78509 -5.77919,0.60672 c -0.595,0.0625 -1.12437,-0.3663 -1.18684,-0.9613 l -0.53959,-5.13975 c -0.0625,-0.595 0.36631,-1.12435 0.96132,-1.18681 z"
       style="opacity:1;fill:#68a8bb;fill-opacity:1;stroke:none;stroke-width:4.11264849;stroke-linecap:round;stroke-linejoin:round;stroke-miterlimit:4;stroke-dasharray:none;stroke-dashoffset:0;stroke-opacity:1" />
  </g>
</svg>
