<?xml version="1.0" encoding="UTF-8" standalone="no"?>
<svg
   xmlns:dc="http://purl.org/dc/elements/1.1/"
   xmlns:cc="http://creativecommons.org/ns#"
   xmlns:rdf="http://www.w3.org/1999/02/22-rdf-syntax-ns#"
   xmlns:svg="http://www.w3.org/2000/svg"
   xmlns="http://www.w3.org/2000/svg"
   xmlns:sodipodi="http://sodipodi.sourceforge.net/DTD/sodipodi-0.dtd"
   xmlns:inkscape="http://www.inkscape.org/namespaces/inkscape"
   height="1024"
   width="1024"
   version="1.1"
   id="svg4576"
   sodipodi:docname="pnyx.svg"
   inkscape:version="0.92.1 r15371"
   inkscape:export-filename="/home/mikael/Project/github/pnyx/static/images/favicon.png"
   inkscape:export-xdpi="4.5000005"
   inkscape:export-ydpi="4.5000005">
  <metadata
     id="metadata4582">
    <rdf:RDF>
      <cc:Work
         rdf:about="">
        <dc:format>image/svg+xml</dc:format>
        <dc:type
           rdf:resource="http://purl.org/dc/dcmitype/StillImage" />
        <dc:title />
      </cc:Work>
    </rdf:RDF>
  </metadata>
  <defs
     id="defs4580" />
  <sodipodi:namedview
     pagecolor="#ffffff"
     bordercolor="#666666"
     borderopacity="1"
     objecttolerance="10"
     gridtolerance="10"
     guidetolerance="10"
     inkscape:pageopacity="0"
     inkscape:pageshadow="2"
     inkscape:window-width="1920"
     inkscape:window-height="999"
     id="namedview4578"
     showgrid="false"
     inkscape:zoom="0.5"
     inkscape:cx="956.78422"
     inkscape:cy="379.76391"
     inkscape:window-x="0"
     inkscape:window-y="24"
     inkscape:window-maximized="1"
     inkscape:current-layer="svg4576" />
  <path
     style="opacity:1;fill:#004391;fill-opacity:1;stroke:none;stroke-width:0.04424673;stroke-linecap:round;stroke-linejoin:round;stroke-miterlimit:4;stroke-dasharray:none;stroke-dashoffset:0;stroke-opacity:1"
     d="M 512 0 C 228.352 0 0 228.352 0 512 C 0 711.76335 113.26357 884.09553 279.33398 968.55664 L 279.33398 965.83398 L 395.66602 907.66602 L 337.5 558.66602 L 163 558.66602 L 163 442.33398 L 337.5 267.83398 L 570.16602 267.83398 L 570.16602 209.66602 L 541.08398 209.66602 C 524.7246 209.66602 512 194.21679 512 180.58398 C 512 166.95117 526.54232 151.5 541.08398 151.5 L 570.16602 151.5 C 599.24935 151.5 628.33398 180.58268 628.33398 209.66602 L 628.33398 267.83398 L 686.5 267.83398 L 861 442.33398 L 861 558.66602 L 686.5 558.66602 L 628.33398 907.66602 L 744.66602 965.83398 L 744.66602 968.55664 C 910.73643 884.09553 1024 711.76335 1024 512 C 1024 228.352 795.648 0 512 0 z "
     id="rect4584" />
</svg>
