<?xml version="1.0" encoding="UTF-8" standalone="no"?>
<!-- Created with Inkscape (http://www.inkscape.org/) -->

<svg
   xmlns:dc="http://purl.org/dc/elements/1.1/"
   xmlns:cc="http://creativecommons.org/ns#"
   xmlns:rdf="http://www.w3.org/1999/02/22-rdf-syntax-ns#"
   xmlns:svg="http://www.w3.org/2000/svg"
   xmlns="http://www.w3.org/2000/svg"
   xmlns:sodipodi="http://sodipodi.sourceforge.net/DTD/sodipodi-0.dtd"
   xmlns:inkscape="http://www.inkscape.org/namespaces/inkscape"
   width="41.275002mm"
   height="370.41666mm"
   viewBox="0 0 41.275002 370.41666"
   version="1.1"
   id="svg8"
   inkscape:version="0.92.1 r15371"
   sodipodi:docname="sidebar-pnyx.svg">
  <defs
     id="defs2" />
  <sodipodi:namedview
     id="base"
     pagecolor="#ffffff"
     bordercolor="#666666"
     borderopacity="1.0"
     inkscape:pageopacity="0.0"
     inkscape:pageshadow="2"
     inkscape:zoom="0.28774038"
     inkscape:cx="612.0265"
     inkscape:cy="689.74239"
     inkscape:document-units="mm"
     inkscape:current-layer="layer1"
     showgrid="false"
     inkscape:snap-global="false"
     inkscape:window-width="1920"
     inkscape:window-height="999"
     inkscape:window-x="0"
     inkscape:window-y="24"
     inkscape:window-maximized="1"
     fit-margin-top="0"
     fit-margin-left="0"
     fit-margin-right="0"
     fit-margin-bottom="0" />
  <metadata
     id="metadata5">
    <rdf:RDF>
      <cc:Work
         rdf:about="">
        <dc:format>image/svg+xml</dc:format>
        <dc:type
           rdf:resource="http://purl.org/dc/dcmitype/StillImage" />
        <dc:title></dc:title>
      </cc:Work>
    </rdf:RDF>
  </metadata>
  <g
     inkscape:label="Layer 1"
     inkscape:groupmode="layer"
     id="layer1"
     transform="translate(-148.9624,-24.052553)">
    <rect
       style="opacity:1;fill:#d4f5ff;fill-opacity:1;stroke:none;stroke-width:3.29828715;stroke-linecap:round;stroke-linejoin:round;stroke-miterlimit:4;stroke-dasharray:none;stroke-dashoffset:0;stroke-opacity:1"
       id="rect4485"
       width="41.275002"
       height="370.41666"
       x="148.9624"
       y="24.052553"
       ry="0"
       inkscape:export-xdpi="96"
       inkscape:export-ydpi="96" />
    <path
       style="opacity:1;fill:#68a8bb;fill-opacity:1;stroke:none;stroke-width:2.75910878;stroke-linecap:round;stroke-linejoin:round;stroke-miterlimit:4;stroke-dasharray:none;stroke-dashoffset:0;stroke-opacity:1"
       d="m 159.08169,161.53168 a 4.3418768,2.6834271 12.36493 0 0 -4.81583,1.69147 4.3418768,2.6834271 12.36493 0 0 3.66658,3.5509 4.3418768,2.6834271 12.36493 0 0 1.35734,0.15585 l 1.59491,1.4544 -0.0752,-1.63393 a 4.3418768,2.6834271 12.36493 0 0 1.93867,-1.66771 4.3418768,2.6834271 12.36493 0 0 -3.66645,-3.55098 z"
       id="path4509"
       inkscape:connector-curvature="0" />
    <path
       style="opacity:1;fill:#68a8bb;fill-opacity:1;stroke:none;stroke-width:4.08568907;stroke-linecap:round;stroke-linejoin:round;stroke-miterlimit:4;stroke-dasharray:none;stroke-dashoffset:0;stroke-opacity:1"
       d="m 175.75156,165.46164 c -0.57763,0.13998 -0.92999,0.71777 -0.79,1.2954 l 1.20924,4.98968 c 0.13999,0.57763 0.71778,0.92999 1.29539,0.79 l 0.79426,-0.19248 0.46925,1.93625 1.46701,-2.4055 5.61046,-1.35969 c 0.57763,-0.13999 0.93,-0.71778 0.79002,-1.2954 l -1.20925,-4.98969 c -0.13999,-0.57762 -0.71778,-0.92998 -1.29541,-0.78999 z"
       id="rect4514"
       inkscape:connector-curvature="0" />
    <path
       style="opacity:1;fill:#68a8bb;fill-opacity:1;stroke:none;stroke-width:5.60723782;stroke-linecap:round;stroke-linejoin:round;stroke-miterlimit:4;stroke-dasharray:none;stroke-dashoffset:0;stroke-opacity:1"
       d="m 159.34318,250.02006 a 2.2435836,2.2435836 0 0 1 1.94854,1.13476 2.6291996,2.6291996 0 0 1 0.2599,-0.0129 2.6291996,2.6291996 0 0 1 1.85402,0.76697 2.8395356,2.8395356 0 0 1 0.60004,-0.0657 2.8395356,2.8395356 0 0 1 2.83944,2.83945 2.8395356,2.8395356 0 0 1 -1.97528,2.7037 3.0498716,3.0498716 0 0 1 0.0123,0.24095 3.0498716,3.0498716 0 0 1 -3.05008,3.04985 3.0498716,3.0498716 0 0 1 -1.46063,-0.37602 3.8561595,3.8561595 0 0 1 -2.15003,0.65664 3.8561595,3.8561595 0 0 1 -1.05273,-0.14755 l -1.42206,1.42206 v -2.17856 a 3.8561595,3.8561595 0 0 1 -1.38128,-2.95223 3.8561595,3.8561595 0 0 1 0.14533,-1.04649 2.7343676,2.7343676 0 0 1 -0.91676,-2.03836 2.7343676,2.7343676 0 0 1 2.73446,-2.73446 2.7343676,2.7343676 0 0 1 0.92568,0.16427 2.2435836,2.2435836 0 0 1 2.08918,-1.4263 z"
       id="path4519"
       inkscape:connector-curvature="0" />
    <path
       inkscape:connector-curvature="0"
       id="path4536"
       d="m 178.16357,194.12807 a 2.2435836,2.2435836 0 0 0 -1.35572,1.80181 2.6291996,2.6291996 0 0 0 -0.24455,0.0889 2.6291996,2.6291996 0 0 0 -1.41129,1.42615 2.8395356,2.8395356 0 0 0 -0.57853,0.17223 2.8395356,2.8395356 0 0 0 -1.51553,3.71861 2.8395356,2.8395356 0 0 0 2.86945,1.72567 3.0498716,3.0498716 0 0 0 0.0821,0.22685 3.0498716,3.0498716 0 0 0 3.99437,1.62775 3.0498716,3.0498716 0 0 0 1.20037,-0.91321 3.8561595,3.8561595 0 0 0 2.23639,-0.22887 3.8561595,3.8561595 0 0 0 0.91304,-0.54439 l 1.86237,0.75902 -0.84515,-2.00794 a 3.8561595,3.8561595 0 0 0 0.12781,-3.25688 3.8561595,3.8561595 0 0 0 -0.53992,-0.90816 2.7343676,2.7343676 0 0 0 0.0542,-2.23437 2.7343676,2.7343676 0 0 0 -3.58112,-1.4595 2.7343676,2.7343676 0 0 0 -0.78945,0.51051 2.2435836,2.2435836 0 0 0 -2.47889,-0.50412 z"
       style="opacity:1;fill:#68a8bb;fill-opacity:1;stroke:none;stroke-width:5.60723782;stroke-linecap:round;stroke-linejoin:round;stroke-miterlimit:4;stroke-dasharray:none;stroke-dashoffset:0;stroke-opacity:1" />
    <path
       style="opacity:1;fill:#68a8bb;fill-opacity:1;stroke:none;stroke-width:7.64998245;stroke-linecap:round;stroke-linejoin:round;stroke-miterlimit:4;stroke-dasharray:none;stroke-dashoffset:0;stroke-opacity:1"
       d="m 159.8848,219.65151 a 3.0609323,3.0609323 0 0 0 -2.85435,1.14742 3.5870301,3.5870301 0 0 0 -0.34832,-0.0687 3.5870301,3.5870301 0 0 0 -2.65419,0.66956 3.8739925,3.8739925 0 0 0 -0.79706,-0.20704 3.8739925,3.8739925 0 0 0 -4.39339,3.2729 3.8739925,3.8739925 0 0 0 2.13311,4.03963 4.160955,4.160955 0 0 0 -0.0642,0.32284 4.160955,4.160955 0 0 0 3.51574,4.71899 4.160955,4.160955 0 0 0 2.04598,-0.21943 5.2609776,5.2609776 0 0 0 2.77291,1.31066 5.2609776,5.2609776 0 0 0 1.45025,0.009 l 1.63915,2.2003 0.42985,-2.94097 a 5.2609776,5.2609776 0 0 0 2.44716,-3.71286 5.2609776,5.2609776 0 0 0 0.0103,-1.4414 3.7305113,3.7305113 0 0 0 1.63977,-2.57083 3.7305113,3.7305113 0 0 0 -3.15189,-4.23095 3.7305113,3.7305113 0 0 0 -1.28205,0.0391 3.0609323,3.0609323 0 0 0 -2.53889,-2.33766 z"
       id="path4538"
       inkscape:connector-curvature="0" />
    <path
       inkscape:connector-curvature="0"
       id="path4540"
       d="m 176.71023,237.39356 a 5.5959496,9.0544375 76.566891 0 1 10.10684,3.3395 5.5959496,9.0544375 76.566891 0 1 -7.50685,7.54621 5.5959496,9.0544375 76.566891 0 1 -2.82401,0.37773 l -3.26885,3.09441 0.0933,-3.40966 a 5.5959496,9.0544375 76.566891 0 1 -4.10699,-3.40183 5.5959496,9.0544375 76.566891 0 1 7.50656,-7.54636 z"
       style="opacity:1;fill:#68a8bb;fill-opacity:1;stroke:none;stroke-width:5.75377417;stroke-linecap:round;stroke-linejoin:round;stroke-miterlimit:4;stroke-dasharray:none;stroke-dashoffset:0;stroke-opacity:1" />
    <path
       inkscape:connector-curvature="0"
       id="path4542"
       d="m 168.83239,186.82962 c 0.71386,0.17299 1.14932,0.88704 0.97631,1.6009 l -1.49442,6.16643 c -0.17301,0.71385 -0.88706,1.14931 -1.60089,0.97631 l -0.98158,-0.23788 -0.57991,2.39289 -1.81299,-2.9728 -6.9336,-1.68036 c -0.71386,-0.173 -1.14933,-0.88706 -0.97634,-1.6009 l 1.49444,-6.16644 c 0.173,-0.71384 0.88705,-1.1493 1.60091,-0.97629 z"
       style="opacity:1;fill:#68a8bb;fill-opacity:1;stroke:none;stroke-width:5.04924107;stroke-linecap:round;stroke-linejoin:round;stroke-miterlimit:4;stroke-dasharray:none;stroke-dashoffset:0;stroke-opacity:1" />
    <path
       inkscape:connector-curvature="0"
       id="path4544"
       d="m 181.94206,261.26046 a 1.7063065,2.7608622 53.271672 0 1 3.23322,-0.28347 1.7063065,2.7608622 53.271672 0 1 -1.1924,3.01861 1.7063065,2.7608622 53.271672 0 1 -0.74535,0.44632 l -0.54234,1.26081 -0.38502,-0.96617 a 1.7063065,2.7608622 53.271672 0 1 -1.56042,-0.45748 1.7063065,2.7608622 53.271672 0 1 1.19231,-3.01862 z"
       style="opacity:1;fill:#68a8bb;fill-opacity:1;stroke:none;stroke-width:1.75443006;stroke-linecap:round;stroke-linejoin:round;stroke-miterlimit:4;stroke-dasharray:none;stroke-dashoffset:0;stroke-opacity:1" />
    <path
       inkscape:connector-curvature="0"
       id="path4546"
       d="m 170.91205,149.51309 c 0.33874,-0.12406 0.71134,0.0487 0.83544,0.38744 l 1.07193,2.92592 c 0.12407,0.33874 -0.0487,0.71135 -0.38742,0.83544 l -0.46575,0.17063 0.41596,1.13541 -1.55137,-0.71944 -3.28995,1.20531 c -0.33874,0.12406 -0.71135,-0.0487 -0.83545,-0.38743 l -1.07194,-2.92594 c -0.12406,-0.33873 0.0487,-0.71134 0.38745,-0.83543 z"
       style="opacity:1;fill:#68a8bb;fill-opacity:1;stroke:none;stroke-width:2.47976899;stroke-linecap:round;stroke-linejoin:round;stroke-miterlimit:4;stroke-dasharray:none;stroke-dashoffset:0;stroke-opacity:1" />
    <path
       style="opacity:1;fill:#68a8bb;fill-opacity:1;stroke:none;stroke-width:2.6898334;stroke-linecap:round;stroke-linejoin:round;stroke-miterlimit:4;stroke-dasharray:none;stroke-dashoffset:0;stroke-opacity:1"
       d="m 159.22405,282.80013 a 2.6160519,4.2328614 61.202385 0 0 -2.44919,4.33162 2.6160519,4.2328614 61.202385 0 0 4.96958,0.25342 2.6160519,4.2328614 61.202385 0 0 1.09622,-0.75658 l 2.1038,0.044 -1.10363,-1.15094 a 2.6160519,4.2328614 61.202385 0 0 0.35275,-2.468 2.6160519,4.2328614 61.202385 0 0 -4.96953,-0.25355 z"
       id="path4550"
       inkscape:connector-curvature="0" />
    <path
       style="opacity:1;fill:#68a8bb;fill-opacity:1;stroke:none;stroke-width:1.45551968;stroke-linecap:round;stroke-linejoin:round;stroke-miterlimit:4;stroke-dasharray:none;stroke-dashoffset:0;stroke-opacity:1"
       d="m 181.74727,281.6551 c 0.18077,-0.11025 0.41508,-0.0534 0.52532,0.12731 l 0.95231,1.56155 c 0.11025,0.18076 0.0534,0.41508 -0.1273,0.52532 l -0.24857,0.15159 0.36954,0.60595 -0.9755,-0.2364 -1.75582,1.07079 c -0.18078,0.11025 -0.41509,0.0534 -0.52533,-0.12731 l -0.95232,-1.56155 c -0.11023,-0.18077 -0.0534,-0.41507 0.12733,-0.52532 z"
       id="path4554"
       inkscape:connector-curvature="0" />
    <path
       style="opacity:1;fill:#68a8bb;fill-opacity:1;stroke:none;stroke-width:2.24420524;stroke-linecap:round;stroke-linejoin:round;stroke-miterlimit:4;stroke-dasharray:none;stroke-dashoffset:0;stroke-opacity:1"
       d="m 181.44895,135.55913 a 0.8979576,0.8979576 0 0 0 -0.5426,0.72114 1.0522941,1.0522941 0 0 0 -0.0979,0.0356 1.0522941,1.0522941 0 0 0 -0.56485,0.57079 1.1364776,1.1364776 0 0 0 -0.23154,0.0689 1.1364776,1.1364776 0 0 0 -0.60657,1.48831 1.1364776,1.1364776 0 0 0 1.14845,0.69067 1.2206612,1.2206612 0 0 0 0.0329,0.0908 1.2206612,1.2206612 0 0 0 1.59868,0.65148 1.2206612,1.2206612 0 0 0 0.48043,-0.36549 1.5433647,1.5433647 0 0 0 0.89508,-0.0916 1.5433647,1.5433647 0 0 0 0.36543,-0.21788 l 0.74538,0.30379 -0.33826,-0.80365 a 1.5433647,1.5433647 0 0 0 0.0512,-1.30351 1.5433647,1.5433647 0 0 0 -0.2161,-0.36348 1.0943859,1.0943859 0 0 0 0.0217,-0.89427 1.0943859,1.0943859 0 0 0 -1.43328,-0.58414 1.0943859,1.0943859 0 0 0 -0.31596,0.20433 0.8979576,0.8979576 0 0 0 -0.99214,-0.20177 z"
       id="path4556"
       inkscape:connector-curvature="0" />
    <g
       id="g4507"
       transform="matrix(0.3629029,-0.37353923,0.71724462,0.69682146,-171.35244,129.77181)">
      <rect
         style="opacity:1;fill:#2e74e7;fill-opacity:1;stroke:none;stroke-width:1.11591768;stroke-linecap:round;stroke-linejoin:round;stroke-miterlimit:4;stroke-dasharray:none;stroke-dashoffset:0;stroke-opacity:1"
         id="rect4487"
         width="13.229167"
         height="132.29167"
         x="307.97961"
         y="242.39374"
         ry="0" />
      <rect
         ry="0"
         y="242.39374"
         x="321.20877"
         height="132.29167"
         width="13.229167"
         id="rect4489"
         style="opacity:1;fill:#09af38;fill-opacity:1;stroke:none;stroke-width:1.11591768;stroke-linecap:round;stroke-linejoin:round;stroke-miterlimit:4;stroke-dasharray:none;stroke-dashoffset:0;stroke-opacity:1" />
      <rect
         style="opacity:1;fill:#eead00;fill-opacity:1;stroke:none;stroke-width:1.11591768;stroke-linecap:round;stroke-linejoin:round;stroke-miterlimit:4;stroke-dasharray:none;stroke-dashoffset:0;stroke-opacity:1"
         id="rect4491"
         width="13.229167"
         height="132.29167"
         x="334.43793"
         y="242.39374"
         ry="0" />
      <rect
         ry="0"
         y="242.39374"
         x="347.66708"
         height="132.29167"
         width="13.229167"
         id="rect4493"
         style="opacity:1;fill:#dc2f20;fill-opacity:1;stroke:none;stroke-width:1.11591768;stroke-linecap:round;stroke-linejoin:round;stroke-miterlimit:4;stroke-dasharray:none;stroke-dashoffset:0;stroke-opacity:1" />
    </g>
    <path
       style="opacity:1;fill:#68a8bb;fill-opacity:1;stroke:none;stroke-width:4.11264849;stroke-linecap:round;stroke-linejoin:round;stroke-miterlimit:4;stroke-dasharray:none;stroke-dashoffset:0;stroke-opacity:1"
       d="m 174.61075,263.74972 c 0.595,-0.0625 1.12435,0.3663 1.18681,0.96131 l 0.53961,5.13975 c 0.0625,0.59501 -0.36632,1.12435 -0.96129,1.18682 l -0.81816,0.0859 0.2094,1.99449 -2.2039,-1.78509 -5.77919,0.60672 c -0.595,0.0625 -1.12437,-0.3663 -1.18684,-0.9613 l -0.53959,-5.13975 c -0.0625,-0.595 0.36631,-1.12435 0.96132,-1.18681 z"
       id="path4596"
       inkscape:connector-curvature="0" />
  </g>
</svg>
