<?xml version="1.0" encoding="UTF-8" standalone="no"?>
<!-- Created with Inkscape (http://www.inkscape.org/) -->

<svg
   xmlns:dc="http://purl.org/dc/elements/1.1/"
   xmlns:cc="http://creativecommons.org/ns#"
   xmlns:rdf="http://www.w3.org/1999/02/22-rdf-syntax-ns#"
   xmlns:svg="http://www.w3.org/2000/svg"
   xmlns="http://www.w3.org/2000/svg"
   xmlns:sodipodi="http://sodipodi.sourceforge.net/DTD/sodipodi-0.dtd"
   xmlns:inkscape="http://www.inkscape.org/namespaces/inkscape"
   width="41.275002mm"
   height="370.41666mm"
   viewBox="0 0 41.275002 370.41666"
   version="1.1"
   id="svg8"
   inkscape:version="0.92.4 (5da689c313, 2019-01-14)"
   sodipodi:docname="sidebar-pnyx-green.svg">
  <defs
     id="defs2" />
  <sodipodi:namedview
     id="base"
     pagecolor="#ffffff"
     bordercolor="#666666"
     borderopacity="1.0"
     inkscape:pageopacity="0.0"
     inkscape:pageshadow="2"
     inkscape:zoom="2.301923"
     inkscape:cx="105.4677"
     inkscape:cy="620.66323"
     inkscape:document-units="mm"
     inkscape:current-layer="layer1"
     showgrid="false"
     inkscape:snap-global="false"
     inkscape:window-width="2560"
     inkscape:window-height="1345"
     inkscape:window-x="0"
     inkscape:window-y="27"
     inkscape:window-maximized="1"
     fit-margin-top="0"
     fit-margin-left="0"
     fit-margin-right="0"
     fit-margin-bottom="0" />
  <metadata
     id="metadata5">
    <rdf:RDF>
      <cc:Work
         rdf:about="">
        <dc:format>image/svg+xml</dc:format>
        <dc:type
           rdf:resource="http://purl.org/dc/dcmitype/StillImage" />
        <dc:title></dc:title>
      </cc:Work>
    </rdf:RDF>
  </metadata>
  <g
     inkscape:label="Layer 1"
     inkscape:groupmode="layer"
     id="layer1"
     transform="translate(-148.9624,-24.052553)">
    <rect
       style="opacity:1;fill:#c1e4a5;fill-opacity:1;stroke:none;stroke-width:3.29828715;stroke-linecap:round;stroke-linejoin:round;stroke-miterlimit:4;stroke-dasharray:none;stroke-dashoffset:0;stroke-opacity:1"
       id="rect4485"
       width="41.275002"
       height="370.41666"
       x="148.9624"
       y="24.052553"
       ry="0"
       inkscape:export-xdpi="96"
       inkscape:export-ydpi="96" />
    <g
       id="g2268"
       style="fill:#68a842;fill-opacity:1">
      <path
         inkscape:connector-curvature="0"
         id="path4509"
         d="m 159.08169,161.53168 a 4.3418768,2.6834271 12.36493 0 0 -4.81583,1.69147 4.3418768,2.6834271 12.36493 0 0 3.66658,3.5509 4.3418768,2.6834271 12.36493 0 0 1.35734,0.15585 l 1.59491,1.4544 -0.0752,-1.63393 a 4.3418768,2.6834271 12.36493 0 0 1.93867,-1.66771 4.3418768,2.6834271 12.36493 0 0 -3.66645,-3.55098 z"
         style="opacity:1;fill:#68a842;fill-opacity:1;stroke:none;stroke-width:2.75910878;stroke-linecap:round;stroke-linejoin:round;stroke-miterlimit:4;stroke-dasharray:none;stroke-dashoffset:0;stroke-opacity:1" />
      <path
         inkscape:connector-curvature="0"
         id="rect4514"
         d="m 175.75156,165.46164 c -0.57763,0.13998 -0.92999,0.71777 -0.79,1.2954 l 1.20924,4.98968 c 0.13999,0.57763 0.71778,0.92999 1.29539,0.79 l 0.79426,-0.19248 0.46925,1.93625 1.46701,-2.4055 5.61046,-1.35969 c 0.57763,-0.13999 0.93,-0.71778 0.79002,-1.2954 l -1.20925,-4.98969 c -0.13999,-0.57762 -0.71778,-0.92998 -1.29541,-0.78999 z"
         style="opacity:1;fill:#68a842;fill-opacity:1;stroke:none;stroke-width:4.08568907;stroke-linecap:round;stroke-linejoin:round;stroke-miterlimit:4;stroke-dasharray:none;stroke-dashoffset:0;stroke-opacity:1" />
      <path
         inkscape:connector-curvature="0"
         id="path4519"
         d="m 159.34318,250.02006 a 2.2435836,2.2435836 0 0 1 1.94854,1.13476 2.6291996,2.6291996 0 0 1 0.2599,-0.0129 2.6291996,2.6291996 0 0 1 1.85402,0.76697 2.8395356,2.8395356 0 0 1 0.60004,-0.0657 2.8395356,2.8395356 0 0 1 2.83944,2.83945 2.8395356,2.8395356 0 0 1 -1.97528,2.7037 3.0498716,3.0498716 0 0 1 0.0123,0.24095 3.0498716,3.0498716 0 0 1 -3.05008,3.04985 3.0498716,3.0498716 0 0 1 -1.46063,-0.37602 3.8561595,3.8561595 0 0 1 -2.15003,0.65664 3.8561595,3.8561595 0 0 1 -1.05273,-0.14755 l -1.42206,1.42206 v -2.17856 a 3.8561595,3.8561595 0 0 1 -1.38128,-2.95223 3.8561595,3.8561595 0 0 1 0.14533,-1.04649 2.7343676,2.7343676 0 0 1 -0.91676,-2.03836 2.7343676,2.7343676 0 0 1 2.73446,-2.73446 2.7343676,2.7343676 0 0 1 0.92568,0.16427 2.2435836,2.2435836 0 0 1 2.08918,-1.4263 z"
         style="opacity:1;fill:#68a842;fill-opacity:1;stroke:none;stroke-width:5.60723782;stroke-linecap:round;stroke-linejoin:round;stroke-miterlimit:4;stroke-dasharray:none;stroke-dashoffset:0;stroke-opacity:1" />
      <path
         style="opacity:1;fill:#68a842;fill-opacity:1;stroke:none;stroke-width:5.60723782;stroke-linecap:round;stroke-linejoin:round;stroke-miterlimit:4;stroke-dasharray:none;stroke-dashoffset:0;stroke-opacity:1"
         d="m 178.16357,194.12807 a 2.2435836,2.2435836 0 0 0 -1.35572,1.80181 2.6291996,2.6291996 0 0 0 -0.24455,0.0889 2.6291996,2.6291996 0 0 0 -1.41129,1.42615 2.8395356,2.8395356 0 0 0 -0.57853,0.17223 2.8395356,2.8395356 0 0 0 -1.51553,3.71861 2.8395356,2.8395356 0 0 0 2.86945,1.72567 3.0498716,3.0498716 0 0 0 0.0821,0.22685 3.0498716,3.0498716 0 0 0 3.99437,1.62775 3.0498716,3.0498716 0 0 0 1.20037,-0.91321 3.8561595,3.8561595 0 0 0 2.23639,-0.22887 3.8561595,3.8561595 0 0 0 0.91304,-0.54439 l 1.86237,0.75902 -0.84515,-2.00794 a 3.8561595,3.8561595 0 0 0 0.12781,-3.25688 3.8561595,3.8561595 0 0 0 -0.53992,-0.90816 2.7343676,2.7343676 0 0 0 0.0542,-2.23437 2.7343676,2.7343676 0 0 0 -3.58112,-1.4595 2.7343676,2.7343676 0 0 0 -0.78945,0.51051 2.2435836,2.2435836 0 0 0 -2.47889,-0.50412 z"
         id="path4536"
         inkscape:connector-curvature="0" />
      <path
         inkscape:connector-curvature="0"
         id="path4538"
         d="m 159.8848,219.65151 a 3.0609323,3.0609323 0 0 0 -2.85435,1.14742 3.5870301,3.5870301 0 0 0 -0.34832,-0.0687 3.5870301,3.5870301 0 0 0 -2.65419,0.66956 3.8739925,3.8739925 0 0 0 -0.79706,-0.20704 3.8739925,3.8739925 0 0 0 -4.39339,3.2729 3.8739925,3.8739925 0 0 0 2.13311,4.03963 4.160955,4.160955 0 0 0 -0.0642,0.32284 4.160955,4.160955 0 0 0 3.51574,4.71899 4.160955,4.160955 0 0 0 2.04598,-0.21943 5.2609776,5.2609776 0 0 0 2.77291,1.31066 5.2609776,5.2609776 0 0 0 1.45025,0.009 l 1.63915,2.2003 0.42985,-2.94097 a 5.2609776,5.2609776 0 0 0 2.44716,-3.71286 5.2609776,5.2609776 0 0 0 0.0103,-1.4414 3.7305113,3.7305113 0 0 0 1.63977,-2.57083 3.7305113,3.7305113 0 0 0 -3.15189,-4.23095 3.7305113,3.7305113 0 0 0 -1.28205,0.0391 3.0609323,3.0609323 0 0 0 -2.53889,-2.33766 z"
         style="opacity:1;fill:#68a842;fill-opacity:1;stroke:none;stroke-width:7.64998245;stroke-linecap:round;stroke-linejoin:round;stroke-miterlimit:4;stroke-dasharray:none;stroke-dashoffset:0;stroke-opacity:1" />
      <path
         style="opacity:1;fill:#68a842;fill-opacity:1;stroke:none;stroke-width:5.75377417;stroke-linecap:round;stroke-linejoin:round;stroke-miterlimit:4;stroke-dasharray:none;stroke-dashoffset:0;stroke-opacity:1"
         d="m 176.71023,237.39356 a 5.5959496,9.0544375 76.566891 0 1 10.10684,3.3395 5.5959496,9.0544375 76.566891 0 1 -7.50685,7.54621 5.5959496,9.0544375 76.566891 0 1 -2.82401,0.37773 l -3.26885,3.09441 0.0933,-3.40966 a 5.5959496,9.0544375 76.566891 0 1 -4.10699,-3.40183 5.5959496,9.0544375 76.566891 0 1 7.50656,-7.54636 z"
         id="path4540"
         inkscape:connector-curvature="0" />
      <path
         style="opacity:1;fill:#68a842;fill-opacity:1;stroke:none;stroke-width:5.04924107;stroke-linecap:round;stroke-linejoin:round;stroke-miterlimit:4;stroke-dasharray:none;stroke-dashoffset:0;stroke-opacity:1"
         d="m 168.83239,186.82962 c 0.71386,0.17299 1.14932,0.88704 0.97631,1.6009 l -1.49442,6.16643 c -0.17301,0.71385 -0.88706,1.14931 -1.60089,0.97631 l -0.98158,-0.23788 -0.57991,2.39289 -1.81299,-2.9728 -6.9336,-1.68036 c -0.71386,-0.173 -1.14933,-0.88706 -0.97634,-1.6009 l 1.49444,-6.16644 c 0.173,-0.71384 0.88705,-1.1493 1.60091,-0.97629 z"
         id="path4542"
         inkscape:connector-curvature="0" />
      <path
         style="opacity:1;fill:#68a842;fill-opacity:1;stroke:none;stroke-width:1.75443006;stroke-linecap:round;stroke-linejoin:round;stroke-miterlimit:4;stroke-dasharray:none;stroke-dashoffset:0;stroke-opacity:1"
         d="m 181.94206,261.26046 a 1.7063065,2.7608622 53.271672 0 1 3.23322,-0.28347 1.7063065,2.7608622 53.271672 0 1 -1.1924,3.01861 1.7063065,2.7608622 53.271672 0 1 -0.74535,0.44632 l -0.54234,1.26081 -0.38502,-0.96617 a 1.7063065,2.7608622 53.271672 0 1 -1.56042,-0.45748 1.7063065,2.7608622 53.271672 0 1 1.19231,-3.01862 z"
         id="path4544"
         inkscape:connector-curvature="0" />
      <path
         style="opacity:1;fill:#68a842;fill-opacity:1;stroke:none;stroke-width:2.47976899;stroke-linecap:round;stroke-linejoin:round;stroke-miterlimit:4;stroke-dasharray:none;stroke-dashoffset:0;stroke-opacity:1"
         d="m 170.91205,149.51309 c 0.33874,-0.12406 0.71134,0.0487 0.83544,0.38744 l 1.07193,2.92592 c 0.12407,0.33874 -0.0487,0.71135 -0.38742,0.83544 l -0.46575,0.17063 0.41596,1.13541 -1.55137,-0.71944 -3.28995,1.20531 c -0.33874,0.12406 -0.71135,-0.0487 -0.83545,-0.38743 l -1.07194,-2.92594 c -0.12406,-0.33873 0.0487,-0.71134 0.38745,-0.83543 z"
         id="path4546"
         inkscape:connector-curvature="0" />
      <path
         inkscape:connector-curvature="0"
         id="path4550"
         d="m 159.22405,282.80013 a 2.6160519,4.2328614 61.202385 0 0 -2.44919,4.33162 2.6160519,4.2328614 61.202385 0 0 4.96958,0.25342 2.6160519,4.2328614 61.202385 0 0 1.09622,-0.75658 l 2.1038,0.044 -1.10363,-1.15094 a 2.6160519,4.2328614 61.202385 0 0 0.35275,-2.468 2.6160519,4.2328614 61.202385 0 0 -4.96953,-0.25355 z"
         style="opacity:1;fill:#68a842;fill-opacity:1;stroke:none;stroke-width:2.6898334;stroke-linecap:round;stroke-linejoin:round;stroke-miterlimit:4;stroke-dasharray:none;stroke-dashoffset:0;stroke-opacity:1" />
      <path
         inkscape:connector-curvature="0"
         id="path4554"
         d="m 181.74727,281.6551 c 0.18077,-0.11025 0.41508,-0.0534 0.52532,0.12731 l 0.95231,1.56155 c 0.11025,0.18076 0.0534,0.41508 -0.1273,0.52532 l -0.24857,0.15159 0.36954,0.60595 -0.9755,-0.2364 -1.75582,1.07079 c -0.18078,0.11025 -0.41509,0.0534 -0.52533,-0.12731 l -0.95232,-1.56155 c -0.11023,-0.18077 -0.0534,-0.41507 0.12733,-0.52532 z"
         style="opacity:1;fill:#68a842;fill-opacity:1;stroke:none;stroke-width:1.45551968;stroke-linecap:round;stroke-linejoin:round;stroke-miterlimit:4;stroke-dasharray:none;stroke-dashoffset:0;stroke-opacity:1" />
      <path
         inkscape:connector-curvature="0"
         id="path4556"
         d="m 181.44895,135.55913 a 0.8979576,0.8979576 0 0 0 -0.5426,0.72114 1.0522941,1.0522941 0 0 0 -0.0979,0.0356 1.0522941,1.0522941 0 0 0 -0.56485,0.57079 1.1364776,1.1364776 0 0 0 -0.23154,0.0689 1.1364776,1.1364776 0 0 0 -0.60657,1.48831 1.1364776,1.1364776 0 0 0 1.14845,0.69067 1.2206612,1.2206612 0 0 0 0.0329,0.0908 1.2206612,1.2206612 0 0 0 1.59868,0.65148 1.2206612,1.2206612 0 0 0 0.48043,-0.36549 1.5433647,1.5433647 0 0 0 0.89508,-0.0916 1.5433647,1.5433647 0 0 0 0.36543,-0.21788 l 0.74538,0.30379 -0.33826,-0.80365 a 1.5433647,1.5433647 0 0 0 0.0512,-1.30351 1.5433647,1.5433647 0 0 0 -0.2161,-0.36348 1.0943859,1.0943859 0 0 0 0.0217,-0.89427 1.0943859,1.0943859 0 0 0 -1.43328,-0.58414 1.0943859,1.0943859 0 0 0 -0.31596,0.20433 0.8979576,0.8979576 0 0 0 -0.99214,-0.20177 z"
         style="opacity:1;fill:#68a842;fill-opacity:1;stroke:none;stroke-width:2.24420524;stroke-linecap:round;stroke-linejoin:round;stroke-miterlimit:4;stroke-dasharray:none;stroke-dashoffset:0;stroke-opacity:1" />
      <path
         inkscape:connector-curvature="0"
         id="path4596"
         d="m 174.61075,263.74972 c 0.595,-0.0625 1.12435,0.3663 1.18681,0.96131 l 0.53961,5.13975 c 0.0625,0.59501 -0.36632,1.12435 -0.96129,1.18682 l -0.81816,0.0859 0.2094,1.99449 -2.2039,-1.78509 -5.77919,0.60672 c -0.595,0.0625 -1.12437,-0.3663 -1.18684,-0.9613 l -0.53959,-5.13975 c -0.0625,-0.595 0.36631,-1.12435 0.96132,-1.18681 z"
         style="opacity:1;fill:#68a842;fill-opacity:1;stroke:none;stroke-width:4.11264849;stroke-linecap:round;stroke-linejoin:round;stroke-miterlimit:4;stroke-dasharray:none;stroke-dashoffset:0;stroke-opacity:1" />
    </g>
    <g
       id="g897"
       transform="matrix(0.21831331,0,0,0.21831331,138.00815,171.97186)">
      <circle
         r="66.240326"
         cy="185.21353"
         cx="145.18979"
         id="path826"
         style="opacity:1;fill:#80e0ec;fill-opacity:1;fill-rule:nonzero;stroke:none;stroke-width:0.5;stroke-linecap:round;stroke-linejoin:bevel;stroke-miterlimit:4;stroke-dasharray:none;stroke-dashoffset:0;stroke-opacity:1;paint-order:normal" />
      <path
         inkscape:connector-curvature="0"
         id="path828"
         d="m 136.4494,120.48512 c 0,0 -6.99256,6.42559 -7.18154,9.4494 -0.18899,3.02381 0,11.1503 -0.94494,11.33929 -0.94495,0.18899 -5.48066,6.2366 -7.18155,1.88988 -1.7009,-4.34673 -2.45685,-9.82738 -4.7247,-8.50446 -2.26786,1.32291 -4.72471,1.13392 -3.77977,4.7247 0.94494,3.59077 4.15774,12.28422 0.94494,16.63095 -3.21279,4.34672 -5.66964,-0.94494 -10.20535,2.07887 -4.535717,3.02381 -3.779765,7.9375 -5.669647,10.96131 -1.889879,3.02381 -8.315476,2.83482 -8.315476,6.04762 0,3.21279 11.717263,4.7247 13.418153,8.12648 1.7009,3.40179 8.69345,15.49703 3.96875,15.68602 -4.7247,0.18898 -8.693449,-6.99256 -10.77232,-4.15774 -2.078868,2.83482 -3.590774,4.91369 -1.511903,7.18155 2.078868,2.26785 0.188987,13.41815 2.078868,16.44196 1.889882,3.02381 0.566965,16.06399 0.566965,16.06399 l -17.008929,-26.26935 -2.83482,-37.60863 15.497024,-29.29315 27.025295,-18.14286 z"
         style="fill:#87bc26;fill-opacity:1;stroke:none;stroke-width:0.26458332px;stroke-linecap:butt;stroke-linejoin:miter;stroke-opacity:1" />
      <path
         inkscape:connector-curvature="0"
         id="path830"
         d="m 149.67857,119.54018 c 0,0 3.2128,8.69345 5.10268,7.74851 1.88988,-0.94494 15.68601,-1.70089 16.81994,0.56696 1.13393,2.26786 0,10.20536 3.02381,11.1503 3.02381,0.94494 10.58333,4.7247 11.1503,7.37054 0.56696,2.64583 -2.26786,11.90625 1.13392,14.55208 3.40179,2.64583 11.71727,5.29167 12.47322,3.59077 0.75595,-1.70089 2.45684,-9.26041 3.02381,-9.26041 0.56696,0 -4.15774,-8.88244 -4.15774,-8.88244 L 186.72024,133.14732 166.6875,122.18601 Z"
         style="fill:#87bc26;fill-opacity:1;stroke:none;stroke-width:0.26458332px;stroke-linecap:butt;stroke-linejoin:miter;stroke-opacity:1" />
      <path
         sodipodi:nodetypes="ccscscccsscccccccccc"
         inkscape:connector-curvature="0"
         id="path832"
         d="m 209.94678,170.57483 c 0,0 -5.65065,-2.08674 -7.54053,-2.6537 -1.88988,-0.56697 -6.04762,-2.83482 -7.37054,-1.5119 -1.32291,1.32291 -7.37053,9.63839 -6.2366,10.9613 1.13392,1.32292 3.77976,10.96131 2.07886,12.66221 -1.70089,1.70089 -9.82738,6.04761 -9.07142,8.31547 0.75595,2.26786 3.40178,9.07143 4.15773,11.71726 0.75596,2.64584 -1.32291,11.33929 -1.13392,13.60715 0.18898,2.26785 -14.44695,10.61249 -16.90379,10.04553 -2.45685,-0.56696 -21.27181,-12.1244 -24.29562,-11.36845 -3.02381,0.75595 -18.33184,2.26786 -18.33184,2.26786 0,0 -8.50447,5.66964 -9.44941,8.12648 -0.94494,2.45685 -4.34673,9.82739 -4.34673,9.82739 l 12.8512,8.88244 27.97023,2.45684 23.62351,-7.9375 21.71234,-19.23879 9.99737,-18.83396 2.62684,-17.62501 z"
         style="fill:#87bc26;fill-opacity:1;stroke:none;stroke-width:0.26458332px;stroke-linecap:butt;stroke-linejoin:miter;stroke-opacity:1" />
      <path
         sodipodi:nodetypes="cssc"
         inkscape:connector-curvature="0"
         id="path834"
         d="m 106.85521,178.67104 c 0,-3.34219 1.78303,-6.43049 4.67745,-8.10159 2.89442,-1.67109 6.46049,-1.67109 9.35491,0 2.89442,1.67109 4.67746,4.7594 4.67746,8.10159"
         style="opacity:1;fill:none;fill-opacity:1;fill-rule:nonzero;stroke:#000000;stroke-width:4.80000019;stroke-linecap:round;stroke-linejoin:bevel;stroke-miterlimit:4;stroke-dasharray:none;stroke-dashoffset:0;stroke-opacity:1;paint-order:normal" />
      <path
         style="opacity:1;fill:none;fill-opacity:1;fill-rule:nonzero;stroke:#000000;stroke-width:4.80000019;stroke-linecap:round;stroke-linejoin:bevel;stroke-miterlimit:4;stroke-dasharray:none;stroke-dashoffset:0;stroke-opacity:1;paint-order:normal"
         d="m 163.51635,178.67104 c 0,-3.34219 1.78303,-6.43049 4.67745,-8.10159 2.89442,-1.67109 6.46049,-1.67109 9.35491,0 2.89442,1.67109 4.67746,4.7594 4.67746,8.10159"
         id="path837"
         inkscape:connector-curvature="0"
         sodipodi:nodetypes="cssc" />
      <path
         inkscape:connector-curvature="0"
         id="path841"
         d="m 167.44436,132.4956 c 0,0 -5.61266,-7.08264 -13.76438,-2.67269 -8.15172,4.40994 5.07812,7.34991 5.07812,7.34991 0,0 9.6217,-0.93544 8.68626,-4.67722 z"
         style="fill:#87bc26;fill-opacity:1;stroke:none;stroke-width:0.26458332px;stroke-linecap:butt;stroke-linejoin:miter;stroke-opacity:1" />
      <path
         inkscape:connector-curvature="0"
         id="path843"
         d="m 170.65159,143.45366 c 0,0 -5.47902,0 -5.47902,3.07359 0,3.0736 7.21627,4.54358 7.21627,7.75082 0,3.20724 7.48355,5.21176 7.48355,5.21176 0,0 5.47903,-0.40091 4.54358,-3.74178 -0.93544,-3.34087 -1.73725,-11.09168 -7.61718,-11.22532 -5.87993,-0.13363 -6.1472,-1.06907 -6.1472,-1.06907 z"
         style="fill:#87bc26;fill-opacity:1;stroke:none;stroke-width:0.26458332px;stroke-linecap:butt;stroke-linejoin:miter;stroke-opacity:1" />
      <path
         sodipodi:nodetypes="cccccc"
         inkscape:connector-curvature="0"
         id="path849"
         d="m 135.32476,181.2885 4.7028,13.47916 5.19008,3.29049 4.73767,-3.2256 5.00494,-13.64911 z"
         style="fill:#2e1803;fill-opacity:1;stroke:none;stroke-width:0.26458332px;stroke-linecap:butt;stroke-linejoin:miter;stroke-opacity:1" />
      <path
         transform="scale(-1)"
         d="m -138.69755,-194.51463 a 6.2366071,6.2366071 0 0 1 -3.1183,5.40106 6.2366071,6.2366071 0 0 1 -6.23661,0 6.2366071,6.2366071 0 0 1 -3.11831,-5.40106 l 6.23661,0 z"
         sodipodi:end="3.1415927"
         sodipodi:start="0"
         sodipodi:ry="6.2366071"
         sodipodi:rx="6.2366071"
         sodipodi:cy="-194.51463"
         sodipodi:cx="-144.93416"
         sodipodi:type="arc"
         id="path845"
         style="opacity:1;fill:#fc6769;fill-opacity:1;fill-rule:nonzero;stroke:none;stroke-width:5.16499996;stroke-linecap:round;stroke-linejoin:round;stroke-miterlimit:4;stroke-dasharray:none;stroke-dashoffset:0;stroke-opacity:1;paint-order:normal" />
      <path
         style="opacity:1;fill:#f8979b;fill-opacity:1;fill-rule:nonzero;stroke:none;stroke-width:5.16499996;stroke-linecap:round;stroke-linejoin:round;stroke-miterlimit:4;stroke-dasharray:none;stroke-dashoffset:0;stroke-opacity:1;paint-order:normal"
         id="path847"
         sodipodi:type="arc"
         sodipodi:cx="-145.02864"
         sodipodi:cy="-195.17609"
         sodipodi:rx="4.299479"
         sodipodi:ry="3.1655505"
         sodipodi:start="0"
         sodipodi:end="3.1415927"
         d="m -140.72916,-195.17609 a 4.299479,3.1655505 0 0 1 -2.14974,2.74145 4.299479,3.1655505 0 0 1 -4.29948,0 4.299479,3.1655505 0 0 1 -2.14974,-2.74145 l 4.29948,0 z"
         transform="scale(-1)" />
      <path
         sodipodi:nodetypes="czzzccc"
         inkscape:connector-curvature="0"
         id="path839"
         d="m 135.32476,181.2885 c 0,0 2.58732,10.81292 4.7028,13.47916 2.11548,2.66624 3.21089,3.32286 5.19008,3.29049 1.97919,-0.0324 2.66042,-0.56151 4.73767,-3.2256 2.07725,-2.66409 5.00494,-13.64911 5.00494,-13.64911 l -9.65238,0.62482 z"
         style="fill:none;stroke:#000000;stroke-width:5.16499996;stroke-linecap:round;stroke-linejoin:round;stroke-miterlimit:4;stroke-dasharray:none;stroke-opacity:1" />
      <path
         inkscape:connector-curvature="0"
         id="circle872"
         d="m 145.18959,250.9115 a 66.240326,66.240326 0 0 1 -66.239888,-66.2404 66.240326,66.240326 0 0 1 0.414444,-6.73189 66.240326,66.240326 0 0 0 65.825444,59.07443 66.240326,66.240326 0 0 0 65.82595,-59.50851 66.240326,66.240326 0 0 1 0.41445,7.16597 66.240326,66.240326 0 0 1 -66.2404,66.2404 z"
         style="opacity:1;fill:#000000;fill-opacity:0.1709402;fill-rule:nonzero;stroke:none;stroke-width:0.5;stroke-linecap:round;stroke-linejoin:bevel;stroke-miterlimit:4;stroke-dasharray:none;stroke-dashoffset:0;stroke-opacity:1;paint-order:normal" />
      <path
         inkscape:connector-curvature="0"
         id="circle877"
         d="m 79.192066,190.51645 a 66.240326,66.240326 0 0 1 65.998034,-61.3978 66.240326,66.240326 0 0 1 65.99753,60.92599 66.240326,66.240326 0 0 0 0.24236,-4.84208 66.240326,66.240326 0 0 0 -66.23989,-66.2404 66.240326,66.240326 0 0 0 -66.240398,66.2404 66.240326,66.240326 0 0 0 0.242364,5.31389 z"
         style="opacity:1;fill:#ffffff;fill-opacity:0.44159546;fill-rule:nonzero;stroke:none;stroke-width:0.5;stroke-linecap:round;stroke-linejoin:bevel;stroke-miterlimit:4;stroke-dasharray:none;stroke-dashoffset:0;stroke-opacity:1;paint-order:normal" />
      <circle
         style="opacity:1;fill:none;fill-opacity:1;fill-rule:nonzero;stroke:#000000;stroke-width:6.0999999;stroke-linecap:round;stroke-linejoin:bevel;stroke-miterlimit:4;stroke-dasharray:none;stroke-dashoffset:0;stroke-opacity:1;paint-order:normal"
         id="circle870"
         cx="145.18979"
         cy="185.21353"
         r="66.240326" />
    </g>
  </g>
</svg>
